<svg width="512" height="512" viewBox="0 0 512 512" fill="none" xmlns="http://www.w3.org/2000/svg">
<g clip-path="url(#clip0_925_45)">
<path d="M113.055 497.641C119.403 503.77 130 499.271 130 490.447L130 26.3581C130 17.5626 119.462 13.0512 113.098 19.1221L3.0979 124.045C1.11948 125.932 7.15191e-06 128.547 7.16121e-06 131.281L8.02226e-06 384.254C8.0315e-06 386.968 1.10252 389.564 3.05456 391.449L113.055 497.641Z" fill="#FF0000"/>
<path d="M398.945 498.641C392.597 504.77 382 500.271 382 491.447L382 27.3581C382 18.5626 392.538 14.0512 398.902 20.1221L508.902 125.045C510.881 126.932 512 129.547 512 132.281L512 385.254C512 387.968 510.897 390.564 508.945 392.449L398.945 498.641Z" fill="#FF0000"/>
<path d="M353.5 489.697C353.5 499.527 340.803 503.458 335.249 495.347L159.749 239.054C158.61 237.39 158 235.421 158 233.404L158 28.1767C158 18.3134 170.767 14.4062 176.287 22.5802L351.787 282.464C352.904 284.117 353.5 286.066 353.5 288.06L353.5 489.697Z" fill="#FF0000"/>
</g>
<defs>
<clipPath id="clip0_925_45">
<rect width="512" height="512" fill="white"/>
</clipPath>
</defs>
</svg>
