<svg xmlns="http://www.w3.org/2000/svg" viewBox="0 0 1920 1080" width="1920" height="1080" font-family="Inter, Helvetica Neue, Helvetica, Arial, sans-serif">
  <defs>
    <linearGradient id="bgGrad" x1="0%" y1="0%" x2="100%" y2="100%">
      <stop offset="0%" stop-color="#0d1520"></stop>
      <stop offset="40%" stop-color="#0f1823"></stop>
      <stop offset="100%" stop-color="#0d1520"></stop>
    </linearGradient>
    <linearGradient id="panelLeft" x1="0%" y1="0%" x2="100%" y2="100%">
      <stop offset="0%" stop-color="#122440" stop-opacity="0.7"></stop>
      <stop offset="100%" stop-color="#0c162c" stop-opacity="0.5"></stop>
    </linearGradient>
    <linearGradient id="panelRight" x1="100%" y1="0%" x2="0%" y2="100%">
      <stop offset="0%" stop-color="#141820" stop-opacity="0.7"></stop>
      <stop offset="100%" stop-color="#0e121c" stop-opacity="0.5"></stop>
    </linearGradient>
    <linearGradient id="splitLine" x1="0%" y1="0%" x2="0%" y2="100%">
      <stop offset="0%" stop-color="#78a0dc" stop-opacity="0"></stop>
      <stop offset="20%" stop-color="#78a0dc" stop-opacity="0.15"></stop>
      <stop offset="50%" stop-color="#78a0dc" stop-opacity="0.4"></stop>
      <stop offset="80%" stop-color="#78a0dc" stop-opacity="0.15"></stop>
      <stop offset="100%" stop-color="#78a0dc" stop-opacity="0"></stop>
    </linearGradient>
    <linearGradient id="vigLeft" x1="0%" y1="0%" x2="100%" y2="0%">
      <stop offset="0%" stop-color="#0a1223" stop-opacity="0.8"></stop>
      <stop offset="100%" stop-color="#0a1223" stop-opacity="0"></stop>
    </linearGradient>
    <linearGradient id="vigRight" x1="100%" y1="0%" x2="0%" y2="0%">
      <stop offset="0%" stop-color="#0a101a" stop-opacity="0.8"></stop>
      <stop offset="100%" stop-color="#0a101a" stop-opacity="0"></stop>
    </linearGradient>
    <linearGradient id="vigTop" x1="0%" y1="0%" x2="0%" y2="100%">
      <stop offset="0%" stop-color="#0a101a" stop-opacity="0.9"></stop>
      <stop offset="100%" stop-color="#0a101a" stop-opacity="0"></stop>
    </linearGradient>
    <linearGradient id="vigBottom" x1="0%" y1="100%" x2="0%" y2="0%">
      <stop offset="0%" stop-color="#080e18" stop-opacity="0.95"></stop>
      <stop offset="100%" stop-color="#080e18" stop-opacity="0"></stop>
    </linearGradient>
    <radialGradient id="hubPrem" cx="50%" cy="50%" r="50%">
      <stop offset="0%" stop-color="#60b4ff" stop-opacity="0.25"></stop>
      <stop offset="100%" stop-color="#60b4ff" stop-opacity="0"></stop>
    </radialGradient>
    <radialGradient id="hubStd" cx="50%" cy="50%" r="50%">
      <stop offset="0%" stop-color="#8ca0bc" stop-opacity="0.18"></stop>
      <stop offset="100%" stop-color="#8ca0bc" stop-opacity="0"></stop>
    </radialGradient>
    <filter id="glow">
      <feGaussianBlur in="SourceGraphic" stdDeviation="6" result="blur"></feGaussianBlur>
      <feMerge><feMergeNode in="blur"></feMergeNode><feMergeNode in="SourceGraphic"></feMergeNode></feMerge>
    </filter>
    <filter id="textGlow">
      <feGaussianBlur in="SourceGraphic" stdDeviation="12" result="blur"></feGaussianBlur>
      <feMerge><feMergeNode in="blur"></feMergeNode><feMergeNode in="SourceGraphic"></feMergeNode></feMerge>
    </filter>
  </defs>

  
  <rect width="1920" height="1080" fill="url(#bgGrad)"></rect>

  
  <rect x="0" y="0" width="960" height="1080" fill="url(#panelLeft)"></rect>
  <rect x="960" y="0" width="960" height="1080" fill="url(#panelRight)"></rect>

  
  <g fill="#78b4ff" opacity="0.055">
    
    <circle cx="172" cy="162" r="2.5"></circle><circle cx="182" cy="167" r="2.5"></circle><circle cx="192" cy="164" r="2.5"></circle><circle cx="202" cy="170" r="2.5"></circle><circle cx="212" cy="167" r="2.5"></circle><circle cx="222" cy="172" r="2.5"></circle><circle cx="232" cy="170" r="2.5"></circle><circle cx="242" cy="174" r="2.5"></circle>
    <circle cx="177" cy="180" r="2.5"></circle><circle cx="187" cy="182" r="2.5"></circle><circle cx="197" cy="180" r="2.5"></circle><circle cx="207" cy="184" r="2.5"></circle><circle cx="217" cy="182" r="2.5"></circle><circle cx="227" cy="186" r="2.5"></circle><circle cx="237" cy="184" r="2.5"></circle><circle cx="247" cy="188" r="2.5"></circle><circle cx="257" cy="185" r="2.5"></circle>
    <circle cx="162" cy="195" r="2.5"></circle><circle cx="172" cy="197" r="2.5"></circle><circle cx="182" cy="198" r="2.5"></circle><circle cx="192" cy="196" r="2.5"></circle><circle cx="202" cy="200" r="2.5"></circle><circle cx="212" cy="198" r="2.5"></circle><circle cx="222" cy="202" r="2.5"></circle><circle cx="232" cy="200" r="2.5"></circle><circle cx="242" cy="204" r="2.5"></circle><circle cx="252" cy="202" r="2.5"></circle>
    <circle cx="167" cy="212" r="2.5"></circle><circle cx="177" cy="214" r="2.5"></circle><circle cx="187" cy="215" r="2.5"></circle><circle cx="197" cy="213" r="2.5"></circle><circle cx="207" cy="217" r="2.5"></circle><circle cx="217" cy="215" r="2.5"></circle><circle cx="227" cy="219" r="2.5"></circle><circle cx="237" cy="217" r="2.5"></circle>
    <circle cx="177" cy="230" r="2.5"></circle><circle cx="187" cy="231" r="2.5"></circle><circle cx="197" cy="229" r="2.5"></circle><circle cx="207" cy="233" r="2.5"></circle><circle cx="217" cy="231" r="2.5"></circle><circle cx="227" cy="236" r="2.5"></circle>
    <circle cx="187" cy="246" r="2.5"></circle><circle cx="197" cy="245" r="2.5"></circle><circle cx="207" cy="249" r="2.5"></circle><circle cx="217" cy="248" r="2.5"></circle><circle cx="227" cy="252" r="2.5"></circle>
    <circle cx="202" cy="264" r="2.5"></circle><circle cx="212" cy="270" r="2.5"></circle>
    
    <circle cx="227" cy="312" r="2.5"></circle><circle cx="237" cy="315" r="2.5"></circle><circle cx="247" cy="313" r="2.5"></circle><circle cx="257" cy="317" r="2.5"></circle>
    <circle cx="222" cy="328" r="2.5"></circle><circle cx="232" cy="330" r="2.5"></circle><circle cx="242" cy="329" r="2.5"></circle><circle cx="252" cy="332" r="2.5"></circle><circle cx="262" cy="330" r="2.5"></circle>
    <circle cx="227" cy="344" r="2.5"></circle><circle cx="237" cy="346" r="2.5"></circle><circle cx="247" cy="345" r="2.5"></circle><circle cx="257" cy="348" r="2.5"></circle>
    <circle cx="230" cy="360" r="2.5"></circle><circle cx="240" cy="362" r="2.5"></circle><circle cx="250" cy="361" r="2.5"></circle>
    <circle cx="234" cy="376" r="2.5"></circle><circle cx="244" cy="378" r="2.5"></circle>
    <circle cx="238" cy="392" r="2.5"></circle><circle cx="248" cy="394" r="2.5"></circle>
    <circle cx="240" cy="408" r="2.5"></circle><circle cx="250" cy="410" r="2.5"></circle>
    <circle cx="242" cy="424" r="2.5"></circle><circle cx="244" cy="440" r="2.5"></circle>
    
    <circle cx="732" cy="150" r="2.5"></circle><circle cx="742" cy="152" r="2.5"></circle><circle cx="752" cy="150" r="2.5"></circle><circle cx="762" cy="154" r="2.5"></circle><circle cx="772" cy="152" r="2.5"></circle><circle cx="782" cy="155" r="2.5"></circle><circle cx="792" cy="153" r="2.5"></circle>
    <circle cx="722" cy="166" r="2.5"></circle><circle cx="732" cy="167" r="2.5"></circle><circle cx="742" cy="168" r="2.5"></circle><circle cx="752" cy="166" r="2.5"></circle><circle cx="762" cy="169" r="2.5"></circle><circle cx="772" cy="167" r="2.5"></circle><circle cx="782" cy="170" r="2.5"></circle><circle cx="792" cy="168" r="2.5"></circle><circle cx="802" cy="165" r="2.5"></circle><circle cx="812" cy="168" r="2.5"></circle>
    <circle cx="727" cy="182" r="2.5"></circle><circle cx="737" cy="183" r="2.5"></circle><circle cx="747" cy="184" r="2.5"></circle><circle cx="757" cy="182" r="2.5"></circle><circle cx="767" cy="185" r="2.5"></circle><circle cx="777" cy="183" r="2.5"></circle><circle cx="787" cy="186" r="2.5"></circle><circle cx="797" cy="184" r="2.5"></circle><circle cx="807" cy="182" r="2.5"></circle>
    <circle cx="732" cy="198" r="2.5"></circle><circle cx="742" cy="199" r="2.5"></circle><circle cx="752" cy="200" r="2.5"></circle><circle cx="762" cy="198" r="2.5"></circle><circle cx="772" cy="201" r="2.5"></circle><circle cx="782" cy="199" r="2.5"></circle><circle cx="792" cy="202" r="2.5"></circle>
    
    <circle cx="732" cy="312" r="2.5"></circle><circle cx="742" cy="314" r="2.5"></circle><circle cx="752" cy="312" r="2.5"></circle><circle cx="762" cy="315" r="2.5"></circle><circle cx="772" cy="313" r="2.5"></circle><circle cx="782" cy="316" r="2.5"></circle>
    <circle cx="727" cy="328" r="2.5"></circle><circle cx="737" cy="329" r="2.5"></circle><circle cx="747" cy="330" r="2.5"></circle><circle cx="757" cy="328" r="2.5"></circle><circle cx="767" cy="331" r="2.5"></circle><circle cx="777" cy="329" r="2.5"></circle><circle cx="787" cy="332" r="2.5"></circle>
    <circle cx="732" cy="344" r="2.5"></circle><circle cx="742" cy="346" r="2.5"></circle><circle cx="752" cy="344" r="2.5"></circle><circle cx="762" cy="347" r="2.5"></circle><circle cx="772" cy="345" r="2.5"></circle><circle cx="782" cy="348" r="2.5"></circle>
    <circle cx="737" cy="360" r="2.5"></circle><circle cx="747" cy="362" r="2.5"></circle><circle cx="757" cy="360" r="2.5"></circle><circle cx="767" cy="363" r="2.5"></circle><circle cx="777" cy="361" r="2.5"></circle>
    <circle cx="742" cy="376" r="2.5"></circle><circle cx="752" cy="378" r="2.5"></circle><circle cx="762" cy="376" r="2.5"></circle><circle cx="772" cy="379" r="2.5"></circle>
    <circle cx="747" cy="392" r="2.5"></circle><circle cx="757" cy="394" r="2.5"></circle><circle cx="767" cy="392" r="2.5"></circle>
    <circle cx="752" cy="408" r="2.5"></circle><circle cx="762" cy="410" r="2.5"></circle>
    <circle cx="755" cy="422" r="2.5"></circle>
    
    <circle cx="862" cy="150" r="2.5"></circle><circle cx="872" cy="152" r="2.5"></circle><circle cx="882" cy="150" r="2.5"></circle><circle cx="892" cy="154" r="2.5"></circle><circle cx="902" cy="152" r="2.5"></circle><circle cx="912" cy="155" r="2.5"></circle><circle cx="922" cy="153" r="2.5"></circle><circle cx="932" cy="156" r="2.5"></circle><circle cx="942" cy="154" r="2.5"></circle><circle cx="952" cy="157" r="2.5"></circle><circle cx="962" cy="155" r="2.5"></circle><circle cx="972" cy="152" r="2.5"></circle><circle cx="982" cy="155" r="2.5"></circle><circle cx="992" cy="153" r="2.5"></circle><circle cx="1002" cy="156" r="2.5"></circle><circle cx="1012" cy="154" r="2.5"></circle><circle cx="1022" cy="157" r="2.5"></circle>
    <circle cx="852" cy="166" r="2.5"></circle><circle cx="862" cy="168" r="2.5"></circle><circle cx="872" cy="166" r="2.5"></circle><circle cx="882" cy="169" r="2.5"></circle><circle cx="892" cy="167" r="2.5"></circle><circle cx="902" cy="170" r="2.5"></circle><circle cx="912" cy="168" r="2.5"></circle><circle cx="922" cy="171" r="2.5"></circle><circle cx="932" cy="169" r="2.5"></circle><circle cx="942" cy="172" r="2.5"></circle><circle cx="952" cy="170" r="2.5"></circle><circle cx="962" cy="167" r="2.5"></circle><circle cx="972" cy="170" r="2.5"></circle><circle cx="982" cy="168" r="2.5"></circle><circle cx="992" cy="171" r="2.5"></circle><circle cx="1002" cy="169" r="2.5"></circle><circle cx="1012" cy="167" r="2.5"></circle><circle cx="1022" cy="170" r="2.5"></circle><circle cx="1032" cy="168" r="2.5"></circle><circle cx="1042" cy="165" r="2.5"></circle>
    <circle cx="857" cy="182" r="2.5"></circle><circle cx="867" cy="184" r="2.5"></circle><circle cx="877" cy="182" r="2.5"></circle><circle cx="887" cy="185" r="2.5"></circle><circle cx="897" cy="183" r="2.5"></circle><circle cx="907" cy="186" r="2.5"></circle><circle cx="917" cy="184" r="2.5"></circle><circle cx="927" cy="187" r="2.5"></circle><circle cx="937" cy="185" r="2.5"></circle><circle cx="947" cy="182" r="2.5"></circle><circle cx="957" cy="185" r="2.5"></circle><circle cx="967" cy="183" r="2.5"></circle><circle cx="977" cy="186" r="2.5"></circle><circle cx="987" cy="184" r="2.5"></circle><circle cx="997" cy="187" r="2.5"></circle><circle cx="1007" cy="185" r="2.5"></circle><circle cx="1017" cy="188" r="2.5"></circle><circle cx="1027" cy="186" r="2.5"></circle>
    <circle cx="862" cy="198" r="2.5"></circle><circle cx="872" cy="200" r="2.5"></circle><circle cx="882" cy="198" r="2.5"></circle><circle cx="892" cy="201" r="2.5"></circle><circle cx="902" cy="199" r="2.5"></circle><circle cx="912" cy="202" r="2.5"></circle><circle cx="922" cy="200" r="2.5"></circle><circle cx="932" cy="203" r="2.5"></circle><circle cx="942" cy="201" r="2.5"></circle><circle cx="952" cy="204" r="2.5"></circle><circle cx="962" cy="202" r="2.5"></circle><circle cx="972" cy="205" r="2.5"></circle><circle cx="982" cy="203" r="2.5"></circle><circle cx="992" cy="200" r="2.5"></circle><circle cx="1002" cy="203" r="2.5"></circle><circle cx="1012" cy="201" r="2.5"></circle>
    <circle cx="872" cy="214" r="2.5"></circle><circle cx="882" cy="216" r="2.5"></circle><circle cx="892" cy="214" r="2.5"></circle><circle cx="902" cy="217" r="2.5"></circle><circle cx="912" cy="215" r="2.5"></circle><circle cx="922" cy="216" r="2.5"></circle><circle cx="932" cy="217" r="2.5"></circle><circle cx="942" cy="214" r="2.5"></circle><circle cx="952" cy="217" r="2.5"></circle><circle cx="962" cy="215" r="2.5"></circle><circle cx="972" cy="216" r="2.5"></circle><circle cx="982" cy="219" r="2.5"></circle><circle cx="992" cy="217" r="2.5"></circle><circle cx="1002" cy="220" r="2.5"></circle>
    
    <circle cx="972" cy="268" r="2.5"></circle><circle cx="982" cy="270" r="2.5"></circle><circle cx="992" cy="272" r="2.5"></circle><circle cx="977" cy="284" r="2.5"></circle><circle cx="987" cy="286" r="2.5"></circle>
    
    <circle cx="1032" cy="462" r="2.5"></circle><circle cx="1042" cy="464" r="2.5"></circle><circle cx="1052" cy="462" r="2.5"></circle><circle cx="1062" cy="465" r="2.5"></circle><circle cx="1072" cy="463" r="2.5"></circle><circle cx="1082" cy="466" r="2.5"></circle><circle cx="1092" cy="464" r="2.5"></circle>
    <circle cx="1027" cy="478" r="2.5"></circle><circle cx="1037" cy="479" r="2.5"></circle><circle cx="1047" cy="480" r="2.5"></circle><circle cx="1057" cy="478" r="2.5"></circle><circle cx="1067" cy="481" r="2.5"></circle><circle cx="1077" cy="479" r="2.5"></circle><circle cx="1087" cy="482" r="2.5"></circle><circle cx="1097" cy="480" r="2.5"></circle>
    <circle cx="1032" cy="494" r="2.5"></circle><circle cx="1042" cy="496" r="2.5"></circle><circle cx="1052" cy="494" r="2.5"></circle><circle cx="1062" cy="497" r="2.5"></circle><circle cx="1072" cy="495" r="2.5"></circle><circle cx="1082" cy="498" r="2.5"></circle><circle cx="1092" cy="496" r="2.5"></circle>
    <circle cx="1040" cy="510" r="2.5"></circle><circle cx="1050" cy="512" r="2.5"></circle><circle cx="1060" cy="510" r="2.5"></circle><circle cx="1070" cy="513" r="2.5"></circle><circle cx="1080" cy="511" r="2.5"></circle>
    <circle cx="1046" cy="526" r="2.5"></circle><circle cx="1056" cy="528" r="2.5"></circle><circle cx="1066" cy="526" r="2.5"></circle>
  </g>

  
  <g opacity="1">
    
    <circle cx="480" cy="540" r="100" fill="url(#hubPrem)"></circle>
    
    <line x1="480" y1="540" x2="200" y2="320" stroke="#60b4ff" stroke-width="0.8" opacity="0.3"></line>
    <line x1="480" y1="540" x2="340" y2="240" stroke="#60b4ff" stroke-width="0.8" opacity="0.25"></line>
    <line x1="480" y1="540" x2="160" y2="480" stroke="#60b4ff" stroke-width="1" opacity="0.35"></line>
    <line x1="480" y1="540" x2="280" y2="700" stroke="#60b4ff" stroke-width="0.8" opacity="0.3"></line>
    <line x1="480" y1="540" x2="400" y2="820" stroke="#60b4ff" stroke-width="0.8" opacity="0.25"></line>
    <line x1="480" y1="540" x2="340" y2="400" stroke="#60b4ff" stroke-width="0.8" opacity="0.3"></line>
    <line x1="480" y1="540" x2="100" y2="560" stroke="#60b4ff" stroke-width="0.6" opacity="0.2"></line>
    <line x1="200" y1="320" x2="340" y2="240" stroke="#60b4ff" stroke-width="0.5" opacity="0.15"></line>
    <line x1="200" y1="320" x2="160" y2="480" stroke="#60b4ff" stroke-width="0.5" opacity="0.15"></line>
    <line x1="160" y1="480" x2="100" y2="560" stroke="#60b4ff" stroke-width="0.5" opacity="0.12"></line>
    <line x1="280" y1="700" x2="400" y2="820" stroke="#60b4ff" stroke-width="0.5" opacity="0.15"></line>
    <line x1="340" y1="400" x2="200" y2="320" stroke="#60b4ff" stroke-width="0.5" opacity="0.12"></line>
    
    <circle cx="200" cy="320" r="4" fill="#60b4ff" opacity="0.6"></circle>
    <circle cx="340" cy="240" r="3.5" fill="#60b4ff" opacity="0.5"></circle>
    <circle cx="160" cy="480" r="3.5" fill="#60b4ff" opacity="0.5"></circle>
    <circle cx="280" cy="700" r="4" fill="#60b4ff" opacity="0.6"></circle>
    <circle cx="400" cy="820" r="3.5" fill="#60b4ff" opacity="0.5"></circle>
    <circle cx="160" cy="700" r="3" fill="#60b4ff" opacity="0.4"></circle>
    <circle cx="340" cy="400" r="3.5" fill="#60b4ff" opacity="0.5"></circle>
    <circle cx="100" cy="560" r="3" fill="#60b4ff" opacity="0.4"></circle>
    
    <circle cx="480" cy="540" r="10" fill="#60b4ff" opacity="0.85" filter="url(#glow)"></circle>
    <circle cx="480" cy="540" r="5" fill="white" opacity="0.9"></circle>
    
    <circle cx="480" cy="540" r="40" fill="none" stroke="#60b4ff" stroke-width="1.2" opacity="0.3"></circle>
    <circle cx="480" cy="540" r="70" fill="none" stroke="#60b4ff" stroke-width="0.8" opacity="0.15"></circle>
    <circle cx="480" cy="540" r="100" fill="none" stroke="#60b4ff" stroke-width="0.5" opacity="0.08"></circle>
  </g>

  
  <g opacity="1">
    <circle cx="1440" cy="540" r="80" fill="url(#hubStd)"></circle>
    <line x1="1440" y1="540" x2="1700" y2="300" stroke="#8ca0bc" stroke-width="0.6" opacity="0.2"></line>
    <line x1="1440" y1="540" x2="1580" y2="220" stroke="#8ca0bc" stroke-width="0.6" opacity="0.15"></line>
    <line x1="1440" y1="540" x2="1740" y2="480" stroke="#8ca0bc" stroke-width="0.6" opacity="0.18"></line>
    <line x1="1440" y1="540" x2="1640" y2="720" stroke="#8ca0bc" stroke-width="0.6" opacity="0.2"></line>
    <line x1="1440" y1="540" x2="1500" y2="820" stroke="#8ca0bc" stroke-width="0.6" opacity="0.15"></line>
    <line x1="1440" y1="540" x2="1560" y2="380" stroke="#8ca0bc" stroke-width="0.6" opacity="0.18"></line>
    <line x1="1440" y1="540" x2="1820" y2="540" stroke="#8ca0bc" stroke-width="0.5" opacity="0.12"></line>
    <circle cx="1700" cy="300" r="3.5" fill="#8ca0bc" opacity="0.35"></circle>
    <circle cx="1580" cy="220" r="3" fill="#8ca0bc" opacity="0.3"></circle>
    <circle cx="1740" cy="480" r="3" fill="#8ca0bc" opacity="0.3"></circle>
    <circle cx="1640" cy="720" r="3.5" fill="#8ca0bc" opacity="0.35"></circle>
    <circle cx="1500" cy="820" r="3" fill="#8ca0bc" opacity="0.3"></circle>
    <circle cx="1760" cy="640" r="3" fill="#8ca0bc" opacity="0.28"></circle>
    <circle cx="1560" cy="380" r="3" fill="#8ca0bc" opacity="0.3"></circle>
    <circle cx="1820" cy="540" r="3" fill="#8ca0bc" opacity="0.25"></circle>
    <circle cx="1440" cy="540" r="8" fill="#8ca0bc" opacity="0.6"></circle>
    <circle cx="1440" cy="540" r="4" fill="white" opacity="0.5"></circle>
    
    <circle cx="1440" cy="540" r="35" fill="none" stroke="#8ca0bc" stroke-width="0.8" opacity="0.18"></circle>
    <circle cx="1440" cy="540" r="60" fill="none" stroke="#8ca0bc" stroke-width="0.5" opacity="0.09"></circle>
  </g>

  
  <rect x="0" y="0" width="280" height="1080" fill="url(#vigLeft)"></rect>
  <rect x="1640" y="0" width="280" height="1080" fill="url(#vigRight)"></rect>
  <rect x="0" y="0" width="1920" height="160" fill="url(#vigTop)"></rect>
  <rect x="0" y="880" width="1920" height="200" fill="url(#vigBottom)"></rect>

  
  <rect x="959.5" y="0" width="1" height="1080" fill="url(#splitLine)"></rect>

  
  <rect x="920" y="294" width="80" height="28" rx="14" fill="#0f1929" stroke="#6496dc" stroke-width="0.8" stroke-opacity="0.25"></rect>
  <text x="960" y="313" text-anchor="middle" font-size="11" font-weight="700" letter-spacing="3" fill="#64a0f0" fill-opacity="0.7" font-family="Inter, sans-serif">VS</text>

  
  <text x="96" y="110" font-size="13" font-weight="600" letter-spacing="3.5" fill="#64a0f0" fill-opacity="0.9" font-family="Inter, sans-serif">PREMIUM TIER</text>
  <text x="1824" y="110" font-size="13" font-weight="600" letter-spacing="3.5" fill="#8ca0bc" fill-opacity="0.7" text-anchor="end" font-family="Inter, sans-serif">STANDARD TIER</text>

  
  <text x="96" y="870" font-size="13" font-weight="500" letter-spacing="2.5" fill="#b4c8e6" fill-opacity="0.4" font-family="Inter, sans-serif">AVG. LATENCY</text>
  <text x="96" y="960" font-size="88" font-weight="300" letter-spacing="-2" fill="#60b4ff" fill-opacity="0.95" font-family="Inter, sans-serif">12</text>
  <text x="212" y="934" font-size="24" font-weight="400" letter-spacing="1" fill="#60b4ff" fill-opacity="0.7" font-family="Inter, sans-serif">ms</text>
  
  <rect x="96" y="972" width="6" height="12" rx="3" fill="#60b4ff" opacity="0.7"></rect>
  <rect x="107" y="966" width="6" height="18" rx="3" fill="#60b4ff" opacity="0.75"></rect>
  <rect x="118" y="970" width="6" height="14" rx="3" fill="#60b4ff" opacity="0.7"></rect>
  <rect x="129" y="974" width="6" height="10" rx="3" fill="#60b4ff" opacity="0.65"></rect>
  <rect x="140" y="968" width="6" height="16" rx="3" fill="#60b4ff" opacity="0.72"></rect>
  <rect x="151" y="972" width="6" height="12" rx="3" fill="#60b4ff" opacity="0.68"></rect>
  <rect x="162" y="975" width="6" height="9" rx="3" fill="#60b4ff" opacity="0.65"></rect>
  <rect x="173" y="970" width="6" height="14" rx="3" fill="#60b4ff" opacity="0.7"></rect>

  
  <text x="1824" y="870" font-size="13" font-weight="500" letter-spacing="2.5" fill="#b4c8e6" fill-opacity="0.4" text-anchor="end" font-family="Inter, sans-serif">AVG. LATENCY</text>
  <text x="1824" y="960" font-size="88" font-weight="300" letter-spacing="-2" fill="#8ca0bc" fill-opacity="0.6" text-anchor="end" font-family="Inter, sans-serif">340</text>
  <text x="1836" y="934" font-size="24" font-weight="400" letter-spacing="1" fill="#8ca0bc" fill-opacity="0.5" font-family="Inter, sans-serif">ms</text>
  
  <rect x="1737" y="956" width="6" height="28" rx="3" fill="#8ca0bc" opacity="0.32"></rect>
  <rect x="1748" y="944" width="6" height="40" rx="3" fill="#8ca0bc" opacity="0.3"></rect>
  <rect x="1759" y="950" width="6" height="34" rx="3" fill="#8ca0bc" opacity="0.32"></rect>
  <rect x="1770" y="958" width="6" height="26" rx="3" fill="#8ca0bc" opacity="0.28"></rect>
  <rect x="1781" y="942" width="6" height="42" rx="3" fill="#8ca0bc" opacity="0.3"></rect>
  <rect x="1792" y="948" width="6" height="36" rx="3" fill="#8ca0bc" opacity="0.35"></rect>
  <rect x="1803" y="938" width="6" height="46" rx="3" fill="#8ca0bc" opacity="0.28"></rect>
  <rect x="1814" y="954" width="6" height="30" rx="3" fill="#8ca0bc" opacity="0.32"></rect>

  
  
  <text x="960" y="448" text-anchor="middle" font-size="12" font-weight="600" letter-spacing="4" fill="#64a0f0" fill-opacity="0.6" font-family="Inter, sans-serif">CLOUD INFRASTRUCTURE · 2026</text>
  
  <text x="960" y="528" text-anchor="middle" font-size="62" font-weight="600" letter-spacing="-1.2" fill="#dceaff" fill-opacity="0.95" font-family="Inter, sans-serif">Does Cloud</text>
  
  <text x="960" y="600" text-anchor="middle" font-size="62" font-weight="600" letter-spacing="-1.2" fill="#64b4ff" fill-opacity="0.92" font-family="Inter, sans-serif">Tier</text>
  
  <text x="960" y="672" text-anchor="middle" font-size="62" font-weight="600" letter-spacing="-1.2" fill="#dceaff" fill-opacity="0.95" font-family="Inter, sans-serif">Actually Change Latency?</text>
  
  <text x="960" y="726" text-anchor="middle" font-size="16" font-weight="400" letter-spacing="0.4" fill="#a0b4d2" fill-opacity="0.55" font-family="Inter, sans-serif">A deep-dive into CDN tiers, edge compute, and what your users actually feel</text>

  
  <text x="96" y="1040" font-size="11" font-weight="500" letter-spacing="3" fill="#64a0f0" fill-opacity="0.35" font-family="Inter, sans-serif">EDGE NODES · 24 REGIONS · 99.99% SLA</text>
  <text x="1824" y="1040" font-size="11" font-weight="500" letter-spacing="3" fill="#8ca0bc" fill-opacity="0.25" text-anchor="end" font-family="Inter, sans-serif">SHARED INFRASTRUCTURE · BEST EFFORT · BURST</text>
</svg>